<?xml version="1.0" encoding="iso-8859-1"?>
<!-- Uploaded to: SVG Repo, www.svgrepo.com, Generator: SVG Repo Mixer Tools -->
<svg height="800px" width="800px" version="1.1" id="Layer_1" xmlns="http://www.w3.org/2000/svg" xmlns:xlink="http://www.w3.org/1999/xlink" 
	 viewBox="0 0 512 512" xml:space="preserve">
<path style="fill:#FFFFFF;" d="M372.812,508H94.311c-15.731-0.044-28.473-12.786-28.517-28.517V32.517
	C65.838,16.786,78.58,4.044,94.311,4h323.377c15.731,0.044,28.473,12.786,28.517,28.517v402.306"/>
<path style="fill:#8E8E8E;" d="M372.812,512H94.319c-17.954-0.022-32.503-14.571-32.525-32.525V32.517
	C61.82,14.567,76.368,0.022,94.319,0h323.37c17.948,0.026,32.491,14.57,32.517,32.517v402.299h-7.999V32.517
	c-0.018-13.533-10.984-24.5-24.518-24.518H94.319C80.782,8.012,69.811,18.981,69.793,32.517v446.958
	c0.018,13.533,10.984,24.5,24.518,24.518h278.502V512H372.812z"/>
<path style="fill:#333333;" d="M372.812,450.246v61.706l77.129-77.129h-61.682C379.743,434.837,372.839,441.73,372.812,450.246z"/>
<polygon style="fill:#E21B1B;" points="226.818,375.749 129.547,289.357 163.457,251.184 220.051,301.444 345.943,140.202 
	386.196,171.632 "/>
</svg>